<?xml version="1.0" encoding="utf-8"?>
<!-- Generator: Adobe Illustrator 24.0.2, SVG Export Plug-In . SVG Version: 6.00 Build 0)  -->
<svg version="1.1" id="Capa_1" xmlns="http://www.w3.org/2000/svg" xmlns:xlink="http://www.w3.org/1999/xlink" x="0px" y="0px"
	 viewBox="0 0 2500 303" style="enable-background:new 0 0 2500 303;" xml:space="preserve">
<style type="text/css">
	.st0{fill-rule:evenodd;clip-rule:evenodd;fill:#7C7C7C;stroke:#FFFFFF;stroke-width:2;stroke-miterlimit:10;}
</style>
<path class="st0" d="M1721.6,303L1899.7,0h596.8v50h-447.6l-44.2,76.4h236.3l-28.5,50h-237.6l-45.5,76.4H2167l-29.7,50.2H1721.6z
	 M1293.2,224.1h179.1c-6,8.7-8.7,17.5-5,23c6.5,9.7,29.5,5,35.5,3c12-3.7,18.5-11.2,24.2-21.2l30-52.5h-182.6
	c-38.2,0-39.5-22.7-24-50l56.2-95.4c16.7-27.5,39.2-31,67.9-31h317.5c32.2,0,32.2,26.2,19.2,50l-18,32.2h-180.1
	c5.5-10.5,5.7-19.7,1.5-25.5c-7-9.5-25.5-7.5-35.2-2.5c-7.7,4.2-14.2,11.5-21.2,23.2l-28.7,49h176.6c37.2,0,43,27.2,31.2,50
	l-53.7,89.7c-14.5,23.7-39.5,37-68.2,37h-315.2c-31,0-41.7-20.5-28.5-43L1293.2,224.1L1293.2,224.1z M916,50
	c28.7-50,76.4-50,113.4-50h269.8c28.5,0,52.5,23.7,37,50L1217,252.8c-25.2,40.5-45.5,50.2-77.7,50.2h-314c-31,0-45.2-22.7-28.5-50.2
	L916,50z M1072.6,77.4l-90.9,151.4c-3,5.5-4.2,10.5-2.5,14.5c5.7,12.5,41,10.2,53.2,7.7c17.5-4,22-16.5,25.7-22.2l89.7-151.4
	c6.2-10.7,5.5-17.7,0-22c-8-6.2-32.5-6.7-46-3C1090.4,55.7,1080.9,62.9,1072.6,77.4L1072.6,77.4z M480.4,0h346.2c27.5,0,49,25,31,55
	l-35.7,60.7c-15.5,27.5-41.7,40.5-60.9,40.5c19.2,10.7,19.2,29.7,9.5,46.5l-35.7,62.2c-9.5,16.7-24,38.2-67.9,38.2H1.5v-50.2h329.7
	L480.4,0z M584.3,126.4h88.2c20.5,0,28.7-10.7,33.5-20.2l18-28.7c7.2-13,7.2-27.5-8.2-27.5h-86.2L584.3,126.4z M509.1,252.8h88.2
	c20.5,0,28.7-10.7,33.5-20.2l18-28.7c7.2-13.2,7.2-27.5-8.5-27.5h-85.9L509.1,252.8z M2473.2,110.7c-13.7,0-25.5-10.7-25.5-25.2
	s11.7-25,25.5-25c13.7,0,25.2,10.5,25.2,25C2498.5,99.9,2487,110.7,2473.2,110.7z M2452.8,85.4c0,12,9,21,20.5,21
	c11.2,0,20.2-9,20.2-21s-9-21-20.2-21C2461.8,64.4,2452.8,73.4,2452.8,85.4z M2468,87.4v12.5h-4.5v-29h11c7,0,10.2,2.5,10.2,8.2
	c0,5.2-3.2,7.5-7.5,8l8.2,12.7h-5l-7.5-12.5L2468,87.4L2468,87.4z M2468,83.7h5.2c3.7,0,7-0.2,7-4.7c0-3.5-3.3-4.2-6.2-4.2h-6
	C2468,74.7,2468,83.7,2468,83.7z"/>
</svg>
