<?xml version="1.0" encoding="utf-8"?>
<!-- Generator: Adobe Illustrator 24.0.2, SVG Export Plug-In . SVG Version: 6.00 Build 0)  -->
<svg version="1.1" id="Capa_1" xmlns="http://www.w3.org/2000/svg" xmlns:xlink="http://www.w3.org/1999/xlink" x="0px" y="0px"
	 viewBox="0 0 2489.7 611.5" style="enable-background:new 0 0 2489.7 611.5;" xml:space="preserve">
<style type="text/css">
	.st0{fill:#DE1E34;stroke:#FFFFFF;stroke-miterlimit:10;}
	.st1{fill-rule:evenodd;clip-rule:evenodd;fill:#FFFFFF;}
	.st2{fill-rule:evenodd;clip-rule:evenodd;fill:#CC2131;}
	.st3{fill:#CC2131;}
	.st4{font-family:'ArialNarrow';}
	.st5{font-size:129.1535px;}
</style>
<g>
	<path class="st0" d="M2274.4,543.2h37.3V410.7h-37.3V543.2z M2366.4,410.7v132.6h-37.3V410.7H2366.4z M1465.3,462.1h-30.1v-51.5
		h-49.3v132.6h49.3v-65.7h30.1v65.7h49.3V410.7h-49.3V462.1z M1696.7,460l-3-8.7h-40.5v92h40.5v-55.4c0-12.1,7.7-18.6,14.3-18.6
		c5.5,0,12.6,1.1,12.6,13.2v60.8h40.5v-59.7C1761.1,450.1,1723.6,437,1696.7,460z M2113,504.6l-18.9-53.4h-27.6l-18.9,55.6
		l-19.7-55.6h-54.2l-19.5,46.8l-27.4-46.8h-46.3l54.5,93.1l-7.1,17.5c-2.5,5.5-8.4,5.8-9.5,0.6c0-9.4-7.6-17.1-17.1-17.1
		s-17.1,7.6-17.1,17.1c0.1,9.8,9.9,22.7,29.4,21.9c19.5-0.8,27.6-17,30.4-23.8l45.1-108.9l32.5,91.7h29.6l18.1-52.9l18.6,52.9h27.9
		l31.5-92h-16.1L2113,504.6z M1584.4,446.5c-31,0-56.2,23.1-56.2,51.5c0,28.5,25.1,51.5,56.2,51.5s56.2-23.1,56.2-51.5
		S1615.4,446.5,1584.4,446.5L1584.4,446.5z M1598.4,522.1c0,7.7-6.3,14-14,14s-14-6.3-14-14v-48.2c0-7.7,6.3-14,14-14
		s14,6.3,14,13.9V522.1z"/>
	<path class="st0" d="M1885,505.4c0.3-2.2,0.4-5.2,0.4-7.4c0-28.4-25.1-51.5-56.2-51.5c-31,0-56.2,23.1-56.2,51.5
		c0,28.5,25.1,51.5,56.2,51.5c21.3,0,39.9-10.9,49.4-26.9l-12.4-4.6c-7.5,11.5-21.2,19.1-37,19.1c-7.7,0-14-7.3-14-15v-16.7H1885z
		 M1815.3,473.9c0-7.7,6.3-13.9,14-13.9s14,6.3,14,13.9v18.4h-27.9L1815.3,473.9L1815.3,473.9z M2260.2,505.4
		c0.3-2.2,0.5-5.2,0.5-7.4c0-28.4-25.1-51.5-56.2-51.5s-56.2,23.1-56.2,51.5c0,28.5,25.1,51.5,56.2,51.5c21.3,0,39.9-10.9,49.4-26.9
		l-12.4-4.6c-7.5,11.5-21.2,19.1-37,19.1c-7.7,0-14-7.3-14-15v-16.7H2260.2z M2190.6,473.9c0-7.7,6.3-13.9,14-13.9
		c7.7,0,14,6.3,14,13.9v18.4h-27.9L2190.6,473.9z"/>
</g>
<g>
	<path class="st1" d="M1003.5,200.4h2.8l2.9,0.2l2.7,0.3l2.6,0.4l2.4,0.6l2.4,0.6l2.3,0.9l2.1,0.9l2.1,0.9l2,1.2l1.8,1.2l1.8,1.4
		l1.7,1.4l1.5,1.5l1.5,1.7l1.4,1.7l1.4,1.7l1.1,1.8l1.2,1.8l1.8,3.9l0.9,2l0.8,2l0.6,2.1l0.6,2.1l0.4,2.1l0.5,2.3l0.3,2.1l0.5,4.4
		l0.2,4.4v2.6l-0.2,2.7l-0.2,2.4l-0.3,2.6l-0.3,2.4l-0.5,2.4l-0.4,2.3l-0.6,2.3l-0.6,2.3l-0.8,2.1l-0.7,2l-0.9,2.1l-1.1,1.8
		l-1.1,1.8l-1.2,1.8l-1.2,1.7l-1.4,1.6l-1.5,1.5l-1.5,1.5l-1.7,1.2l-1.7,1.4l-2,1.1l-1.8,1l-2.1,1.1l-2.1,0.8l-2.3,0.8l-2.3,0.6
		l-2.4,0.6l-2.6,0.4l-2.7,0.3l-2.7,0.2h-6l-3-0.3l-3-0.3l-2.7-0.6l-2.6-0.6l-2.4-0.9l-2.4-0.9l-2.1-0.9l-2.1-1.2l-2-1.2l-1.8-1.4
		l-1.7-1.5l-1.7-1.5l-2.7-3.3l-1.4-1.8l-1.2-1.8l-1.1-1.8l-0.9-2l-0.9-1.9l-0.8-2.1l-0.7-2l-0.6-2.1l-0.5-2.1l-0.9-4.2l-0.6-4.2
		l-0.3-4.2l-0.2-4.2l0.2-4.1l0.3-4.2l0.6-4.1l1.1-4.2l0.5-2l0.8-2l0.8-2l0.8-2l0.9-1.9l1.1-1.8l1.1-1.8l1.2-1.8l1.2-1.7l1.4-1.5
		l1.5-1.6l1.7-1.4l1.7-1.4l1.8-1.4l1.8-1.2l2.1-1.1l2.1-0.9l2.3-0.9l2.3-0.7l2.6-0.6l2.6-0.5l2.9-0.5l2.9-0.2L1003.5,200.4
		L1003.5,200.4z M630.5,158.6v170h64.7v-88.3l76.8,88.3h70.3V159.2h-62.8v83.1l-73.3-83.7H630.5L630.5,158.6z M1136.3,159.6v38.9
		h62.3v128.6h66.3V198.5h63.8v-38.9H1136.3z M1368.6,158.6h65.8v170h-65.8V158.6z M1513,159.2v169h61.9v-65.8h104.2v-41.4h-104.2
		v-22.4h123.6v-39.3L1513,159.2L1513,159.2z M1747.3,157.7h65.8v169.9h-65.8V157.7z M2080.2,159.6h-184.9v169h193.8v-43.4h-129
		v-25.4h103.1V219h-102.7v-19.4h119.7V159.6z M1004.1,158.7l-6.5,0.2l-6.2,0.3l-6,0.5l-6,0.8l-5.9,0.9l-5.6,1.1l-5.6,1.2l-5.3,1.5
		l-5.3,1.7l-5,1.8l-4.8,1.9l-4.7,2.1l-4.5,2.4l-4.2,2.4l-4.1,2.7l-3.9,2.7l-3.8,3l-3.5,3.2l-3.3,3.3l-3,3.3l-2.8,3.6l-2.7,3.8
		l-2.4,3.8l-2.1,4.1l-2,4.1l-1.7,4.2l-1.5,4.4l-1.1,4.5l-1,4.7l-0.6,4.8l-0.5,4.8l-0.2,5l0.2,5.4l0.5,5.1l0.6,5.1l0.9,5l1.2,4.7
		l1.5,4.7l1.7,4.5l2,4.2l2.1,4.2l2.4,4.1l2.6,3.7l2.9,3.6l3,3.6l3.3,3.3l3.5,3.2l3.6,3l3.9,2.8l4.1,2.6l4.4,2.6l4.4,2.2l4.7,2.1
		l4.8,2l5.1,1.8l5.1,1.7l5.4,1.4l5.4,1.4l5.7,0.9l5.9,0.9l6,0.8l6,0.5l6.3,0.3h12.5l6-0.3l5.9-0.5l5.7-0.8l5.7-0.8l5.4-1l5.4-1.2
		l5.3-1.5l5.1-1.5l5.1-1.8l4.8-2l4.7-2.1l4.5-2.3l4.4-2.4l4.2-2.7l3.9-2.8l3.8-2.9l3.6-3.2l3.5-3.3l3.2-3.5l3-3.8l2.7-3.8l2.6-3.9
		l2.2-4.2l2-4.2l1.8-4.5l1.5-4.7l1.4-4.7l0.9-5l0.8-5.1l0.5-5.1l0.2-5.4l-0.2-4.2l-0.3-4.3l-0.6-4.2l-0.8-4.1l-0.9-4.2l-1.2-4.1
		l-1.5-3.9l-1.7-4.1l-1.8-3.8l-2.1-3.9l-2.4-3.6l-2.4-3.8l-2.9-3.4l-3-3.5l-3.2-3.3l-3.4-3.2l-3.8-3l-3.9-2.9l-4.2-2.9l-4.4-2.6
		l-4.5-2.4l-5-2.2l-5.1-2.1l-5.3-2l-5.5-1.7l-5.9-1.5l-6-1.4l-6.2-1.1l-6.6-0.8l-6.8-0.8l-6.9-0.3L1004.1,158.7L1004.1,158.7z
		 M307.7,17.6c-155.6,0-282.5,126.9-282.5,282.6s126.9,282.6,282.5,282.6s282.5-126.9,282.5-282.6S463.3,17.6,307.7,17.6z"/>
	<path class="st2" d="M355.5,107.1l0.3,41.3l0.1,22.7v46.1l-0.1,22.1l-0.2,20.9l-0.1,19.1l-0.3,2.1l-0.5,2.6l-0.5,1.2l-0.6,1.1
		l-0.3,0.5l-0.5,0.5l-0.5,0.3l-0.5,0.3l-0.6,0.1l-0.8,0.2h-0.6l-0.8-0.2l-0.9-0.3l-0.9-0.3l-1.1-0.6l-1.2-0.6l-2.4-1.8l-2.8-2.4
		l-3.5-3.2l-3.8-4.1l-10.5-11.9l-9.6-11.2l-9-10.2l-8.6-9.8l-4.2-4.7l-4.4-4.7l-4.4-4.5l-4.5-4.4l-4.8-4.4l-4.8-4.4l-5.3-4.4
		l-5.4-4.4l-2-1.2l-2-1.2l-2.1-0.9l-2.3-0.6l-2.3-0.6l-2.4-0.3h-4.8l-2.5,0.3l-2.4,0.5l-2.6,0.5l-2.6,0.8l-2.4,0.9l-2.6,1.1
		l-2.4,1.2l-2.4,1.2l-2.3,1.5l-2.3,1.5l-2.3,1.7l-2.1,1.7l-2,2l-2,1.8l-1.7,2.1l-1.7,2.1l-1.5,2.1l-1.4,2.3l-1.2,2.3l-0.9,2.4
		l-0.9,2.3l-0.6,2.4l-0.3,2.6l-0.2,2.4l-0.2,40.5v40.2l-0.2,38.7v35.4l-0.1,30.7v24.2l0.1,16.4l0.3,6.8l0.5,2.6l0.4,2.4l0.2,1.1v1.8
		l-0.3,0.6l-0.3,0.6l-0.5,0.3l-0.8,0.1h-0.9l-1.2-0.1l-1.5-0.6l-1.7-0.8l-2.1-0.9l-5-3.6l-5-3.8l-4.7-3.9l-4.8-3.9l-4.5-4.2
		l-4.4-4.2l-4.4-4.5l-4.1-4.5l-4.1-4.7l-3.9-4.7l-3.8-5l-3.6-4.9l-3.5-5.1l-3.3-5.2l-3.2-5.3l-3-5.4l-2.8-5.6l-2.7-5.6l-2.6-5.7
		l-2.4-5.9l-4.2-11.8l-1.8-6l-1.7-6.2l-1.5-6.2l-1.2-6.3l-1.1-6.3l-0.9-6.3l-0.8-6.5l-0.5-6.6l-0.5-6.5v-6.6l0.3-10.7l0.8-10.5
		l1.4-10.6l1.8-10.2l2.3-9.9l2.9-9.9l3.3-9.6l3.6-9.5l4.2-9.2l4.5-8.9l5.1-8.7l5.4-8.4l5.7-8.1l6.2-8l6.5-7.5l6.9-7.2l7.2-6.8
		l7.5-6.6l7.8-6.2l8.3-5.7l8.4-5.4l8.6-5.1l9-4.5l9.2-4.2l9.5-3.6l9.6-3.3l9.9-2.9l9.9-2.3l10.2-1.8l10.4-1.4l10.7-0.7l10.7-0.3h5.4
		l7.2,0.3l3.9,0.3l4.1,0.3l4.2,0.5l4.1,0.8l3.9,0.8l3.6,1l1.8,0.6l1.7,0.8l1.5,0.7l1.5,0.8l1.2,0.9l1.2,0.9l1.1,0.9l0.7,1.1l0.8,1.2
		l0.5,1.2l0.3,1.4L355.5,107.1L355.5,107.1z"/>
	<path class="st2" d="M259.2,493.5l-0.5-28.6v-50.3l0.2-22.4l0.3-41.6v-39.9l0.6-1.7l0.6-1.2l0.7-1.1l0.9-0.9l0.8-0.6l0.9-0.6
		l0.9-0.3l0.9-0.2h0.9l0.9,0.2l0.9,0.2l0.9,0.3l0.9,0.5l0.8,0.5l0.8,0.6l0.8,0.6l2.7,2.6l2.7,2.7l2.7,2.8l2.7,3l5.6,6.3l5.6,6.9
		l11.3,14.5l11.4,15.1l5.7,7.4l5.7,7.2l5.7,7.1l5.9,6.5l2.8,3.2l2.9,3l2.9,2.9l2.9,2.7l3,2.4l2.8,2.4l2.9,2.1l2.9,2l2.1,1.2l2.1,1.1
		l2.1,0.9l2.3,0.6l2.1,0.6l2.3,0.3l2.3,0.3h4.4l2.1-0.3l2.1-0.3l2.2-0.6l2-0.6l2.1-0.8l2-0.9l2-1.1l3.6-2.4l1.8-1.4l1.7-1.5l1.5-1.5
		l1.5-1.8l1.4-1.7l1.2-2l1.2-2l0.9-2l0.9-2.1l0.8-2.3l0.6-2.2l0.5-2.3l0.3-2.4l0.1-2.6l-0.3-79.8v-78.6l0.2-33.7v-27l0.1-18.4v-7.4
		l0.2-2.4l0.3-2.1l0.2-1.7l0.5-1.2l0.3-0.9l0.5-0.6l0.6-0.4l0.5-0.2l0.8,0.2l0.6,0.3l0.8,0.5l0.9,0.5l2,1.2l2.1,1.2l5,3.6l5,3.8
		l4.8,3.8l4.7,4.1l4.5,4.2l4.5,4.2l4.2,4.4l4.2,4.5l4,4.7l3.9,4.8l3.8,5l3.6,5l3.5,5.1l3.3,5.1l3.2,5.4l3,5.4l2.9,5.6l2.7,5.6
		l4.8,11.4l2.1,5.9l2.1,6l1.8,6l1.7,6.2l1.5,6.2l2.4,12.7l0.9,6.3l0.6,6.5l0.6,6.5l0.3,6.6l0.2,6.6l-0.3,10.7l-0.9,10.5l-1.2,10.4
		l-1.8,10.2l-2.4,10.1l-2.9,9.9l-3.2,9.6l-3.8,9.5l-4.2,9.2l-4.5,8.9l-5,8.7l-5.4,8.4l-5.9,8.1l-6.2,7.8l-6.5,7.7l-6.9,7.1l-7.2,6.9
		l-7.5,6.6l-7.8,6.2L423,473l-8.4,5.4l-8.7,5l-9,4.7l-9.2,4.1l-9.5,3.8l-9.6,3.3l-9.8,2.7l-10.1,2.4l-10.2,1.8l-10.4,1.4l-10.5,0.8
		l-10.7,0.3h-5.6l-6.9-0.2l-3.9-0.2l-3.9-0.3l-4.1-0.4l-3.9-0.6l-3.8-0.8l-3.6-1.1l-1.8-0.4l-1.5-0.8l-1.5-0.6l-1.4-0.8l-1.4-0.9
		l-1.1-0.9l-1.1-1.1l-0.7-1.1l-0.8-1.1l-0.5-1.4l-0.3-1.2L259.2,493.5L259.2,493.5z"/>
	<path class="st2" d="M307.7,46.6c-139.6,0-253.5,113.9-253.5,253.5c0,139.6,113.9,253.5,253.5,253.5
		c139.6,0,253.5-113.9,253.5-253.5S447.4,46.6,307.7,46.6z M307.7,17.6c-155.6,0-282.5,126.9-282.5,282.6
		c0,155.6,126.9,282.6,282.5,282.6s282.5-126.9,282.5-282.6C590.3,144.5,463.3,17.6,307.7,17.6z"/>
	<path class="st1" d="M2406.8,133.7c6.1-0.9,9.7-2.6,9.7-8.6l-0.1-2.7c0-8.2-6.5-9.3-13.7-9.3h-17.3v35.8h7v-15.2h7.4l8.5,15.2h7.1
		L2406.8,133.7L2406.8,133.7z M2392.5,128.5v-10.3h9.9c3.7,0,7.4,0.4,7.4,4.7v1.6c0.1,4-4.3,4-7.1,4L2392.5,128.5L2392.5,128.5z
		 M2154.9,158.6h160.6c28.5-0.2,52,18.2,52.5,45.6l0.3,7.7c0,23.5-12.6,40.5-35.4,45.9l35.4,70.8h-72.7l-40.5-67.8h-35.4v67.8h-64.7
		L2154.9,158.6L2154.9,158.6z M2309.6,195.3h-90v27.4h88.1c6.7,0,8.3-6.8,8.4-12.9v-2.6C2316.2,203.1,2314.6,195.3,2309.6,195.3z"/>
	<path class="st1" d="M2402.7,163.2h1.5l1.4-0.1l1.4-0.3l1.4-0.3l1.3-0.3l1.4-0.4l1.2-0.5l1.3-0.5l1.3-0.5l1.1-0.6l1.1-0.6l1.1-0.8
		l1.1-0.8l1-0.9l1-0.9l1-0.9l0.9-1l1.8-2l0.8-1.1l0.8-1.1l0.6-1.1l0.6-1.1l0.6-1.2l0.4-1.3l0.5-1.4l0.4-1.3l0.3-1.4l0.3-1.4l0.2-1.4
		l0.1-1.4V134l-0.1-1.4l-0.2-1.4l-0.3-1.4l-0.3-1.3l-0.4-1.4l-0.5-1.3l-0.4-1.3l-0.6-1.2l-0.6-1.1l-0.6-1.1l-0.8-1.1l-1.6-2.1
		l-1.8-2l-2-1.8l-2.1-1.6l-1.1-0.8l-1.1-0.6l-1.1-0.6l-1.3-0.5l-1.3-0.5l-1.2-0.5l-1.4-0.4l-1.3-0.3l-1.4-0.3l-1.4-0.3h-1.4
		l-1.5-0.1l-1.4,0.1h-1.4l-1.5,0.3l-1.3,0.3l-1.4,0.3l-1.4,0.4l-1.3,0.5l-1.3,0.5l-1.3,0.5l-1.1,0.6l-1.3,0.6l-1.1,0.8l-1,0.8
		l-1.1,0.9l-1,0.9l-0.8,0.9l-0.9,1l-0.9,1l-0.9,1l-0.8,1.1l-0.8,1.1l-0.6,1.1l-0.6,1.1l-0.5,1.2l-0.5,1.3l-0.5,1.3l-0.4,1.4
		l-0.3,1.3l-0.2,1.4l-0.3,2.8v2.9l0.3,2.7l0.2,1.4l0.3,1.4l0.4,1.3l0.5,1.4l0.5,1.3l0.5,1.2l0.6,1.1l0.6,1.1l0.8,1.1l0.8,1.1l0.9,1
		l0.9,1l0.9,1l0.8,0.9l1,0.9l1.1,0.9l1,0.8l1.1,0.8l1.3,0.6l1.1,0.6l1.3,0.5l1.3,0.5l1.3,0.5l1.4,0.4l1.4,0.3l1.3,0.3l1.5,0.3
		l1.4,0.1L2402.7,163.2L2402.7,163.2L2402.7,163.2z M2402.7,157.8h1.2l1.1-0.1l1.1-0.2l1.1-0.2l1-0.2l1.1-0.3l1-0.4l1-0.4l1-0.4
		l0.9-0.5l0.9-0.5l0.9-0.6l0.9-0.6l0.8-0.7l0.8-0.7l0.8-0.7l0.7-0.8l0.7-0.8l0.7-0.8l0.6-0.9l0.6-0.9l0.5-0.9l0.5-0.9l0.5-1l0.3-1
		l0.4-1.1l0.3-1l0.2-1.1l0.2-1.1l0.2-1.1l0.1-1.1v-2.3l-0.1-1.1l-0.2-1.1l-0.2-1.1l-0.2-1l-0.3-1.1l-0.4-1l-0.3-1l-0.5-1l-0.5-0.9
		l-0.5-0.9l-0.6-0.9l-1.3-1.7l-1.4-1.6l-1.6-1.4l-1.7-1.3l-0.9-0.6l-0.9-0.5l-0.9-0.5l-1-0.4l-1-0.4l-1-0.4l-1.1-0.3l-1-0.2
		l-1.1-0.2l-1.1-0.2h-1.1l-1.2-0.1l-1.1,0.1h-1.1l-1.2,0.2l-1,0.2l-1.1,0.2l-1.1,0.3l-1,0.4l-1,0.4l-1,0.4l-0.9,0.5l-1,0.5l-0.9,0.6
		l-0.8,0.6l-0.9,0.7l-0.8,0.7l-0.7,0.7l-0.7,0.8l-0.7,0.8l-0.7,0.8l-0.6,0.9l-0.6,0.9l-0.5,0.9l-0.5,0.9l-0.4,1l-0.4,1l-0.4,1
		l-0.3,1.1l-0.2,1l-0.2,1.1l-0.2,2.2v2.3l0.2,2.2l0.2,1.1l0.2,1.1l0.3,1l0.4,1.1l0.4,1l0.4,1l0.5,0.9l0.5,0.9l0.6,0.9l0.6,0.9
		l0.7,0.8l0.7,0.8l0.7,0.8l0.7,0.7l0.8,0.7l0.9,0.7l0.8,0.6l0.9,0.6l1,0.5l0.9,0.5l1,0.4l1,0.4l1,0.4l1.1,0.3l1.1,0.2l1,0.2l1.2,0.2
		l1.1,0.1L2402.7,157.8L2402.7,157.8z"/>
</g>
<text transform="matrix(1 0 0 1 1184.0991 533.0158)" class="st3 st4 st5">BY</text>
</svg>
